<mxfile host="app.diagrams.net" modified="2023-02-20T12:53:47.894Z" agent="5.0 (Macintosh; Intel Mac OS X 10_15_7) AppleWebKit/537.36 (KHTML, like Gecko) Chrome/109.0.0.0 Safari/537.36" etag="_lt3QfszlU7m3w_X9qUh" version="20.7.4" type="github">
  <diagram id="R2lEEEUBdFMjLlhIrx00" name="Page-1">
    <mxGraphModel dx="996" dy="610" grid="1" gridSize="10" guides="1" tooltips="1" connect="1" arrows="1" fold="1" page="1" pageScale="1" pageWidth="850" pageHeight="1100" math="0" shadow="0" extFonts="Permanent Marker^https://fonts.googleapis.com/css?family=Permanent+Marker">
      <root>
        <mxCell id="0" />
        <mxCell id="1" parent="0" />
        <mxCell id="bHyxl0RSjW8QzgtCS6Aa-1" value="" style="rounded=0;whiteSpace=wrap;html=1;" vertex="1" parent="1">
          <mxGeometry x="350" y="290" width="110" height="40" as="geometry" />
        </mxCell>
        <mxCell id="bHyxl0RSjW8QzgtCS6Aa-2" value="" style="ellipse;whiteSpace=wrap;html=1;" vertex="1" parent="1">
          <mxGeometry x="170" y="110" width="70" height="50" as="geometry" />
        </mxCell>
        <mxCell id="bHyxl0RSjW8QzgtCS6Aa-3" value="" style="ellipse;whiteSpace=wrap;html=1;" vertex="1" parent="1">
          <mxGeometry x="180" y="120" width="70" height="50" as="geometry" />
        </mxCell>
        <mxCell id="bHyxl0RSjW8QzgtCS6Aa-4" value="" style="ellipse;whiteSpace=wrap;html=1;" vertex="1" parent="1">
          <mxGeometry x="190" y="130" width="70" height="50" as="geometry" />
        </mxCell>
        <mxCell id="bHyxl0RSjW8QzgtCS6Aa-5" value="" style="ellipse;whiteSpace=wrap;html=1;" vertex="1" parent="1">
          <mxGeometry x="200" y="140" width="70" height="50" as="geometry" />
        </mxCell>
        <mxCell id="bHyxl0RSjW8QzgtCS6Aa-6" value="" style="ellipse;whiteSpace=wrap;html=1;" vertex="1" parent="1">
          <mxGeometry x="210" y="150" width="70" height="50" as="geometry" />
        </mxCell>
        <mxCell id="bHyxl0RSjW8QzgtCS6Aa-7" value="" style="ellipse;whiteSpace=wrap;html=1;" vertex="1" parent="1">
          <mxGeometry x="220" y="160" width="70" height="50" as="geometry" />
        </mxCell>
        <mxCell id="bHyxl0RSjW8QzgtCS6Aa-8" value="" style="ellipse;whiteSpace=wrap;html=1;" vertex="1" parent="1">
          <mxGeometry x="230" y="170" width="70" height="50" as="geometry" />
        </mxCell>
        <mxCell id="bHyxl0RSjW8QzgtCS6Aa-9" value="" style="ellipse;whiteSpace=wrap;html=1;" vertex="1" parent="1">
          <mxGeometry x="240" y="180" width="70" height="50" as="geometry" />
        </mxCell>
        <mxCell id="bHyxl0RSjW8QzgtCS6Aa-10" value="" style="ellipse;whiteSpace=wrap;html=1;" vertex="1" parent="1">
          <mxGeometry x="250" y="190" width="70" height="50" as="geometry" />
        </mxCell>
        <mxCell id="bHyxl0RSjW8QzgtCS6Aa-11" value="" style="ellipse;whiteSpace=wrap;html=1;" vertex="1" parent="1">
          <mxGeometry x="260" y="200" width="70" height="50" as="geometry" />
        </mxCell>
        <mxCell id="bHyxl0RSjW8QzgtCS6Aa-12" value="" style="ellipse;whiteSpace=wrap;html=1;" vertex="1" parent="1">
          <mxGeometry x="270" y="210" width="70" height="50" as="geometry" />
        </mxCell>
        <mxCell id="bHyxl0RSjW8QzgtCS6Aa-13" value="" style="ellipse;whiteSpace=wrap;html=1;" vertex="1" parent="1">
          <mxGeometry x="280" y="220" width="70" height="50" as="geometry" />
        </mxCell>
      </root>
    </mxGraphModel>
  </diagram>
</mxfile>
